<?xml version="1.0" encoding="UTF-8" standalone="no"?>
<svg xmlns="http://www.w3.org/2000/svg" viewBox="0 0 40.000001 68.086113">
<g transform="matrix(0.13838529,0,0,0.13838529,-14.043062,0)">
  <g>
    <path
      d="M 382.678,226.804 163.73,7.86 C 158.666,2.792 151.906,0 144.698,0 137.49,0 130.73,2.792
        125.666,7.86 l -16.124,16.12 c -10.492,10.504 -10.492,27.576 0,38.064 L 293.398,245.9
        109.338,429.96 c -5.064,5.068 -7.86,11.824 -7.86,19.028 0,7.212 2.796,13.968 7.86,19.04 l
        16.124,16.116 c 5.068,5.068 11.824,7.86 19.032,7.86 7.208,0 13.968,-2.792 19.032,-7.86 L
        382.678,265 c 5.076,-5.084 7.864,-11.872 7.848,-19.088 0.016,-7.244 -2.772,-14.028
        -7.848,-19.108 z"/>
  </g>
</g>
</svg>
