<svg viewBox="0 0 30 30" width="512" height="512" xmlns="http://www.w3.org/2000/svg">
  <path d="m27.726 7.559c-4.408-7.793-15.191-9.694-22.015-4.016-.348.336-.917.599-.926 1.142-.001.414.334.751.748.752.189-.001.371-.073.509-.203 1.589-1.472 3.559-2.524 5.587-3.054-1.297 1.612-2.312 4.131-2.875 7.199-2.738-.632-4.524-1.537-5.4-2.138-.288-.177-.709-.14-.934.129-6.069 9.519 1.303 22.546 12.591 22.371 11.298.121 18.476-12.638 12.715-22.182zm-1.69.074c-.972.556-2.596 1.241-4.768 1.745-.563-3.072-1.581-5.594-2.881-7.206 3.07.758 5.97 2.864 7.649 5.461zm-11.025-5.892c1.868 0 3.896 3.081 4.786 7.931-2.757.521-6.816.521-9.573 0 .891-4.851 2.919-7.931 4.787-7.931zm-5.011 9.417c2.901.54 7.121.54 10.022 0 .317 2.526.348 5.416-.048 8.002-3.259.596-6.674.597-9.934.001-.353-2.435-.369-5.543-.04-8.003zm-6.756-2.22c1.125.643 2.917 1.395 5.279 1.931-.335 2.491-.347 5.452-.033 7.958-2.315-.565-4.552-1.436-6.652-2.601-.232-2.444.213-4.967 1.406-7.288zm-1.1 9.145c2.094 1.051 4.303 1.831 6.579 2.335.553 3.136 1.574 5.717 2.888 7.362-4.649-1.138-8.483-5.22-9.467-9.697zm12.756 10.143c-1.782-.115-3.682-2.989-4.591-7.504 3.085.511 6.292.511 9.377.001-.237 1.135-.525 2.259-.913 3.356-.149.387.044.821.43.969s.821-.044.97-.43c.486-1.37.844-2.777 1.108-4.201 2.295-.509 4.524-1.298 6.634-2.363-1.298 5.96-7.169 10.359-13.015 10.172zm6.622-9.4c.348-2.589.303-5.428-.024-7.957 2.378-.539 4.177-1.298 5.3-1.943 1.146 2.235 1.641 4.761 1.409 7.281-2.109 1.175-4.358 2.051-6.685 2.619z"/>
</svg>
