<?xml version="1.0" encoding="UTF-8" standalone="no"?>
<svg xmlns="http://www.w3.org/2000/svg" width="20" height="20" viewBox="0 0 20 20" fill="#000000">
  <defs id="defs346"/>
  <path
    id="logo" fill-rule="nonzero" style="stroke:none;stroke-width:1"
    d="m 10.222656,4.884615 c 0.832031,0 1.875,-0.579784 2.496094,-1.352829 0.5625,-0.700572
      0.972656,-1.678957 0.972656,-2.657342 0,-0.132867 -0.01172,-0.265735 -0.03516,-0.374444
      -0.925781,0.03624 -2.039063,0.640178 -2.707031,1.44946 -0.527344,0.61602 -1.007813,1.582326
      -1.007813,2.57279 0,0.144946 0.02344,0.289892 0.03516,0.338208 0.05859,0.01208
      0.152344,0.02416 0.246094,0.02416 z M 7.292969,19.5 c 1.136718,0 1.640625,-0.785124
      3.058593,-0.785124 1.441407,0 1.757813,0.760966 3.023438,0.760966 1.242187,0
      2.074219,-1.183725 2.859375,-2.343293 0.878906,-1.328671 1.242187,-2.633185
      1.265625,-2.693579 -0.08203,-0.02416 -2.460938,-1.026701 -2.460938,-3.841068 0,-2.439924
      1.875,-3.539097 1.980469,-3.623649 C 15.777344,5.138271 13.890625,5.089955 13.375,5.089955 c
      -1.394531,0 -2.53125,0.869676 -3.246094,0.869676 -0.773437,0 -1.792969,-0.82136 -3,-0.82136
      -2.296875,0 -4.628906,1.95677 -4.628906,5.652892 0,2.294978 0.867187,4.722823
      1.933594,6.293071 C 5.347656,18.412905 6.144531,19.5 7.292969,19.5 Z"/>
</svg>
